<?xml version="1.0" standalone="no"?>
<!DOCTYPE svg PUBLIC "-//W3C//DTD SVG 20010904//EN"
 "http://www.w3.org/TR/2001/REC-SVG-20010904/DTD/svg10.dtd">
<svg version="1.0" xmlns="http://www.w3.org/2000/svg"
 width="664.000000pt" height="664.000000pt" viewBox="0 0 664.000000 664.000000"
 preserveAspectRatio="xMidYMid meet">
<metadata>
Created by potrace 1.11, written by Peter Selinger 2001-2013
</metadata>
<g transform="translate(0.000000,664.000000) scale(0.100000,-0.100000)"
fill="#000000" stroke="none">
<path d="M3025 6630 c-112 -13 -189 -22 -210 -26 -11 -2 -49 -9 -85 -15 -115
-19 -341 -78 -477 -124 -763 -258 -1408 -789 -1815 -1494 -59 -102 -156 -300
-199 -408 -71 -178 -161 -486 -184 -633 -4 -25 -9 -54 -12 -65 -35 -158 -52
-607 -32 -840 47 -535 236 -1078 534 -1529 136 -206 246 -339 444 -536 201
-200 373 -335 611 -480 116 -72 328 -178 467 -234 97 -39 275 -103 313 -111 8
-2 60 -16 115 -30 155 -40 350 -75 515 -92 156 -15 619 -7 723 13 10 2 38 5
61 8 70 8 297 55 376 77 41 12 80 22 85 23 18 4 210 67 230 76 11 5 61 25 110
45 159 65 369 176 559 298 161 102 328 239 497 407 154 154 182 184 269 295
396 501 637 1090 705 1725 13 129 16 502 5 625 -41 422 -142 789 -317 1155
-164 341 -367 626 -647 906 -228 228 -454 400 -721 551 -361 204 -813 353
-1210 399 -33 3 -69 9 -80 11 -36 9 -558 11 -630 3z"/>
</g>
</svg>
